<svg width="50" height="50" viewBox="0 0 50 50" fill="none" xmlns="http://www.w3.org/2000/svg">
<g clip-path="url(#clip0_100_28)">
<path d="M41.667 14.5833H31.2503V8.33334C31.2503 6.04167 29.3753 4.16667 27.0837 4.16667H22.917C20.6253 4.16667 18.7503 6.04167 18.7503 8.33334V14.5833H8.33366C6.04199 14.5833 4.16699 16.4583 4.16699 18.75V41.6667C4.16699 43.9583 6.04199 45.8333 8.33366 45.8333H41.667C43.9587 45.8333 45.8337 43.9583 45.8337 41.6667V18.75C45.8337 16.4583 43.9587 14.5833 41.667 14.5833ZM22.917 8.33334H27.0837V18.75H22.917V8.33334ZM22.917 33.3333H18.7503V37.5H14.5837V33.3333H10.417V29.1667H14.5837V25H18.7503V29.1667H22.917V33.3333ZM27.0837 30.2083V27.0833H39.5837V30.2083H27.0837ZM27.0837 36.4583V33.3333H35.417V36.4583H27.0837Z" fill="#1142ED"/>
</g>
<defs>
<clipPath id="clip0_100_28">
<rect width="50" height="50" fill="white"/>
</clipPath>
</defs>
</svg>
