<svg width="50" height="50" viewBox="0 0 50 50" fill="none" xmlns="http://www.w3.org/2000/svg">
<path d="M44.4444 5.55556V44.4444H5.55556V5.55556H44.4444ZM47.5 0H2.5C1.11111 0 0 1.11111 0 2.5V47.5C0 48.6111 1.11111 50 2.5 50H47.5C48.6111 50 50 48.6111 50 47.5V2.5C50 1.11111 48.6111 0 47.5 0ZM22.2222 11.1111H38.8889V16.6667H22.2222V11.1111ZM22.2222 22.2222H38.8889V27.7778H22.2222V22.2222ZM22.2222 33.3333H38.8889V38.8889H22.2222V33.3333ZM11.1111 11.1111H16.6667V16.6667H11.1111V11.1111ZM11.1111 22.2222H16.6667V27.7778H11.1111V22.2222ZM11.1111 33.3333H16.6667V38.8889H11.1111V33.3333Z" fill="#0021F5"/>
</svg>
