<svg width="50" height="50" viewBox="0 0 50 50" fill="none" xmlns="http://www.w3.org/2000/svg">
<g clip-path="url(#clip0_120_183)">
<rect width="50" height="50" fill="#D9D9D9"/>
<path d="M24.979 4.16666C13.479 4.16666 4.1665 13.5 4.1665 25C4.1665 36.5 13.479 45.8333 24.979 45.8333C36.4998 45.8333 45.8332 36.5 45.8332 25C45.8332 13.5 36.4998 4.16666 24.979 4.16666ZM24.9998 41.6667C15.7915 41.6667 8.33317 34.2083 8.33317 25C8.33317 15.7917 15.7915 8.33332 24.9998 8.33332C34.2082 8.33332 41.6665 15.7917 41.6665 25C41.6665 34.2083 34.2082 41.6667 24.9998 41.6667Z" fill="#1142ED"/>
<path d="M26.0415 14.5833H22.9165V27.0833L33.854 33.6458L35.4165 31.0833L26.0415 25.5208V14.5833Z" fill="#1142ED"/>
</g>
<defs>
<clipPath id="clip0_120_183">
<rect width="50" height="50" fill="white"/>
</clipPath>
</defs>
</svg>
