<svg width="50" height="50" viewBox="0 0 50 50" fill="none" xmlns="http://www.w3.org/2000/svg">
<path d="M29.1668 41.6667H12.5002C11.3543 41.6667 10.3734 41.2587 9.55745 40.4427C8.74148 39.6267 8.3335 38.6458 8.3335 37.5V35.8333C8.3335 34.6528 8.63732 33.5677 9.24495 32.5781C9.85259 31.5886 10.6599 30.8333 11.6668 30.3125C13.8196 29.2361 16.0071 28.4288 18.2293 27.8906C20.4516 27.3524 22.7085 27.0833 25.0002 27.0833C25.6946 27.0833 26.3891 27.1094 27.0835 27.1615C27.7779 27.2136 28.4724 27.2917 29.1668 27.3958V41.6667ZM25.0002 25C22.7085 25 20.7467 24.184 19.1147 22.5521C17.4828 20.9201 16.6668 18.9583 16.6668 16.6667C16.6668 14.375 17.4828 12.4132 19.1147 10.7813C20.7467 9.14932 22.7085 8.33334 25.0002 8.33334C27.2918 8.33334 29.2536 9.14932 30.8856 10.7813C32.5175 12.4132 33.3335 14.375 33.3335 16.6667C33.3335 18.9583 32.5175 20.9201 30.8856 22.5521C29.2536 24.184 27.2918 25 25.0002 25ZM37.5002 39.5833H35.4168C34.8266 39.5833 34.3318 39.3837 33.9325 38.9844C33.5331 38.5851 33.3335 38.0903 33.3335 37.5V29.1667C33.3335 28.5764 33.5331 28.0816 33.9325 27.6823C34.3318 27.283 34.8266 27.0833 35.4168 27.0833H43.2814C43.8717 27.0833 44.3231 27.3264 44.6356 27.8125C44.9481 28.2986 44.9654 28.8021 44.6877 29.3229L41.6668 35.4167H43.1252C43.7154 35.4167 44.1581 35.6771 44.4533 36.1979C44.7484 36.7188 44.7571 37.2396 44.4793 37.7604L38.4897 48.2813C38.3509 48.5243 38.1512 48.6111 37.8908 48.5417C37.6304 48.4722 37.5002 48.2986 37.5002 48.0208V39.5833Z" fill="#0021F5"/>
</svg>
